<svg xmlns="http://www.w3.org/2000/svg" xml:space="preserve" width="45.6302mm" height="17.78mm" version="1.1" style="shape-rendering:geometricPrecision; text-rendering:geometricPrecision; image-rendering:optimizeQuality; fill-rule:evenodd; clip-rule:evenodd" viewBox="0 0 2088.84 813.93" xmlns:xlink="http://www.w3.org/1999/xlink">
 <defs>
  <style type="text/css">
   
    .fil0 {fill:#003087;fill-rule:nonzero}
   
  </style>
 </defs>
 <g id="Layer_x0020_1">
  <metadata id="CorelCorpID_0Corel-Layer"></metadata>
  <g id="Kultuuriministeerium_3lovi_est_rgb-1v.svg">
   <g>
    <g>
     <path class="fil0" d="M2029.02 373.97l-19.06 0 0 87.11 15.1 0 0 -57.5 0.45 -0.07 18.76 57.57 10.25 0 18.69 -57.2 0.45 0.07 0 57.13 15.18 0 0 -87.11 -18.99 0 -20.27 68.5 -0.44 0 -20.12 -68.5zm-55.85 0l0 57.01c0,6.27 -1.53,11.15 -4.61,14.63 -3.06,3.48 -7.24,5.23 -12.52,5.23 -5.24,0 -9.4,-1.75 -12.49,-5.23 -3.1,-3.48 -4.64,-8.36 -4.64,-14.63l0 -57.01 -15.1 0 0 57.13c0,9.82 2.97,17.48 8.9,22.99 5.92,5.5 13.7,8.25 23.33,8.25 9.62,0 17.4,-2.75 23.33,-8.25 5.92,-5.52 8.89,-13.17 8.89,-22.99l0 -57.13 -15.1 0zm-70.96 0l-15.1 0 0 87.11 15.1 0 0 -87.11zm-79.49 11.51l13.99 0c4.39,0 7.68,1.33 9.87,3.96 2.19,2.65 3.29,6.21 3.29,10.7 0,4.53 -1.09,8.02 -3.25,10.47 -2.17,2.44 -5.47,3.66 -9.91,3.66l-13.99 0 0 -28.78zm15.25 40.31c4,0 7.06,1.27 9.2,3.82 2.14,2.54 3.22,6.1 3.22,10.68l0 7.86c0,2.59 0.06,5.13 0.18,7.62 0.13,2.5 0.44,4.26 0.95,5.31l15.62 0 0 -1.27c-0.65,-1.05 -1.09,-2.69 -1.32,-4.94 -0.22,-2.24 -0.33,-4.46 -0.33,-6.65l0 -8.01c0,-5.23 -1.04,-9.63 -3.14,-13.2 -2.09,-3.57 -5.49,-6.07 -10.17,-7.51 4.19,-1.95 7.37,-4.61 9.57,-8 2.19,-3.39 3.29,-7.41 3.29,-12.03 0,-8.03 -2.51,-14.29 -7.52,-18.77 -5.01,-4.49 -11.95,-6.72 -20.83,-6.72l-29.08 0 0 87.11 15.1 0 0 -35.29 15.25 0zm-53.38 -15.78l-32.08 0 0 -24.53 37.53 0 0 -11.51 -52.64 0 0 87.11 52.64 0 0 -11.52 -37.53 -0 0 -28.03 32.08 0 0 -11.52zm-73.28 0l-32.08 0 0 -24.53 37.53 0 0 -11.51 -52.64 0 0 87.11 52.64 0 0 -11.52 -37.53 -0 0 -28.03 32.08 0 0 -11.52zm-61.69 -36.04l-59.68 0 0 11.51 22.06 0 0 75.6 15.11 0 0 -75.6 22.5 0 0 -11.51zm-84.54 73.36c-2.55,2.33 -6.31,3.51 -11.3,3.51 -4.63,0 -8.43,-1.22 -11.4,-3.64 -2.97,-2.43 -4.45,-6.39 -4.45,-11.88l-14.5 0 -0.23 0.44c-0.25,8.94 2.47,15.6 8.15,19.99 5.68,4.4 13.16,6.59 22.43,6.59 9.22,0 16.57,-2.15 22.03,-6.45 5.45,-4.31 8.18,-10.22 8.18,-17.72 0,-7.31 -2.17,-12.9 -6.51,-16.75 -4.33,-3.85 -11.06,-7.1 -20.18,-9.76 -6.78,-2.07 -11.26,-4.15 -13.42,-6.25 -2.17,-2.11 -3.25,-5 -3.25,-8.7 0,-3.6 1.11,-6.58 3.33,-8.92 2.22,-2.35 5.62,-3.52 10.2,-3.52 4.54,0 7.97,1.4 10.29,4.21 2.32,2.8 3.47,6.51 3.47,11.13l14.51 0 0.15 -0.44c0.2,-8.28 -2.22,-14.75 -7.29,-19.42 -5.06,-4.66 -12.11,-6.99 -21.13,-6.99 -8.77,0 -15.73,2.21 -20.89,6.64 -5.17,4.44 -7.74,10.27 -7.74,17.48 0,7.42 2.16,13 6.46,16.74 4.32,3.73 11.21,6.91 20.67,9.56 6.18,2.04 10.43,4.17 12.75,6.36 2.32,2.22 3.48,5.11 3.48,8.69 0,3.74 -1.28,6.76 -3.81,9.09l0 0zm-60.86 -73.36l-15.1 0 0 87.11 15.1 0 0 -87.11zm-38.14 0l-15.17 0 0 60.12 -0.45 0.15 -33.43 -60.27 -15.1 0 0 87.11 15.1 0 0 -60.19 0.46 -0.16 33.43 60.35 15.17 -0 0 -87.11zm-86.73 0l-15.1 0 0 87.11 15.1 0 0 -87.11zm-97.8 0l-19.07 0 0 87.11 15.11 0 0 -57.5 0.44 -0.07 18.77 57.57 10.24 0 18.7 -57.2 0.44 0.07 0 57.13 15.18 0 0 -87.11 -19 0 -20.25 68.5 -0.46 0 -20.11 -68.5zm-41.65 0l-15.1 0 0 87.11 15.1 0 0 -87.11zm-79.49 11.51l13.99 0c4.39,0 7.68,1.33 9.87,3.96 2.19,2.65 3.29,6.21 3.29,10.7 0,4.53 -1.08,8.02 -3.25,10.47 -2.17,2.44 -5.47,3.66 -9.91,3.66l-13.99 0 0 -28.78zm15.25 40.31c4,0 7.06,1.27 9.2,3.82 2.14,2.54 3.22,6.1 3.22,10.68l0 7.86c0,2.59 0.06,5.13 0.19,7.62 0.12,2.5 0.43,4.26 0.93,5.31l15.62 0 0 -1.27c-0.65,-1.05 -1.09,-2.69 -1.3,-4.94 -0.23,-2.24 -0.35,-4.46 -0.35,-6.65l0 -8.01c0,-5.23 -1.04,-9.63 -3.13,-13.2 -2.1,-3.57 -5.48,-6.07 -10.17,-7.51 4.19,-1.95 7.38,-4.61 9.57,-8 2.19,-3.39 3.29,-7.41 3.29,-12.03 0,-8.03 -2.5,-14.29 -7.51,-18.77 -5.01,-4.49 -11.95,-6.72 -20.83,-6.72l-29.09 0 0 87.11 15.1 0 0 -35.29 15.25 0zm-67.14 -51.82l0 57.01c0,6.27 -1.53,11.15 -4.59,14.63 -3.06,3.48 -7.24,5.23 -12.53,5.23 -5.24,0 -9.39,-1.75 -12.49,-5.23 -3.09,-3.48 -4.63,-8.36 -4.63,-14.63l0 -57.01 -15.11 0 0 57.13c0,9.82 2.97,17.48 8.9,22.99 5.93,5.5 13.71,8.25 23.33,8.25 9.62,0 17.4,-2.75 23.33,-8.25 5.94,-5.52 8.9,-13.17 8.9,-22.99l0 -57.13 -15.11 0zm-85.16 0l0 57.01c0,6.27 -1.53,11.15 -4.61,14.63 -3.06,3.48 -7.24,5.23 -12.52,5.23 -5.23,0 -9.39,-1.75 -12.48,-5.23 -3.1,-3.48 -4.64,-8.36 -4.64,-14.63l0 -57.01 -15.1 0 0 57.13c0,9.82 2.97,17.48 8.89,22.99 5.93,5.5 13.71,8.25 23.33,8.25 9.63,0 17.4,-2.75 23.33,-8.25 5.94,-5.52 8.9,-13.17 8.9,-22.99l0 -57.13 -15.1 0zm-63.93 0l-59.68 0 0 11.51 22.06 0 0 75.6 15.11 0 0 -75.6 22.5 0 0 -11.51zm-94.67 0l-15.11 0 0 87.11 47.26 0 0 -11.52 -32.15 -0 0 -75.59zm-51.89 0l0 57.01c0,6.27 -1.53,11.15 -4.61,14.63 -3.06,3.48 -7.24,5.23 -12.53,5.23 -5.23,0 -9.39,-1.75 -12.47,-5.23 -3.1,-3.48 -4.64,-8.36 -4.64,-14.63l0 -57.01 -15.1 0 0 57.13c0,9.82 2.97,17.48 8.89,22.99 5.93,5.5 13.71,8.25 23.33,8.25 9.63,0 17.4,-2.75 23.33,-8.25 5.94,-5.52 8.9,-13.17 8.9,-22.99l0 -57.13 -15.1 0zm-79.86 87.11l18.54 0 -36.86 -57.2 34.24 -51.67 -18.09 0 -28.8 47.86 -9.05 0 0 -47.86 -15.18 0 0 108.87 15.18 0 0 -48.82 10.4 0 29.61 48.82z"></path>
    </g>
   </g>
   <g id="_2021554605664">
    <g>
     <g>
      <path class="fil0" d="M178.05 663.37c0,1.62 0.44,3.14 1.2,4.44 2.93,-2.98 6.66,-5.19 10.82,-6.32 1.75,-6.18 7.42,-10.68 14.14,-10.68 0.58,0 1.14,0.02 1.69,0.1 -5.6,1.62 -10.12,5.79 -12.22,11.17 -3.48,1.15 -5.99,4.44 -5.99,8.3 0,1.81 0.55,3.48 1.48,4.87 3.03,-3.39 7,-5.9 11.51,-7.12 1.29,-6.49 6.69,-11.49 13.36,-12.19 -5.83,2.44 -9.92,8.21 -9.92,14.92 0,2.37 0.52,4.63 1.44,6.66 1.03,-3.7 4.42,-6.41 8.43,-6.41 1.02,0 1.99,0.17 2.87,0.49 1.25,0.46 2.6,0.7 3.99,0.7 6.47,0 11.73,-5.25 11.73,-11.74 0,-1.29 -0.21,-2.54 -0.59,-3.71 3.07,0.9 5.32,3.74 5.32,7.12 0,1.54 -0.47,2.97 -1.27,4.15 0.86,0.15 1.74,0.24 2.66,0.24 7.62,0 13.91,-5.73 14.79,-13.13 3.83,-2.07 7.19,-4.87 10.08,-8.36l2.03 9.92c0.15,0.68 0.1,1.38 -0.08,2 -0.18,0.63 -0.51,1.23 -1,1.73l8.41 -8.64c0.49,-0.5 0.82,-1.1 0.99,-1.73 0.19,-0.64 0.23,-1.32 0.08,-2.01l-2.48 -12.1c-0.14,-0.68 -0.11,-1.37 0.09,-2 0.18,-0.64 0.51,-1.23 1,-1.73l6.62 -6.75c-0.49,0.5 -0.83,1.1 -1.01,1.73 -0.18,0.64 -0.22,1.32 -0.07,2l2.47 12.12c0.15,0.7 0.11,1.37 -0.07,2.01 -0.18,0.62 -0.5,1.21 -0.98,1.71l7.5 -7.8c0.48,-0.5 0.81,-1.1 0.99,-1.73 0.19,-0.62 0.23,-1.32 0.07,-2l-2.47 -12.08c-0.14,-0.68 -0.11,-1.38 0.09,-2 0.18,-0.63 0.51,-1.23 1,-1.73l6.62 -6.75c-0.49,0.5 -0.83,1.1 -1.01,1.73 -0.18,0.62 -0.22,1.32 -0.07,2l2.49 12.12c0.15,0.68 0.1,1.38 -0.08,2 -0.18,0.62 -0.5,1.21 -0.98,1.71l7.5 -7.79c0.49,-0.5 0.81,-1.11 0.99,-1.73 0.19,-0.63 0.23,-1.31 0.09,-2.01l-1.21 -5.91c-1.27,-6.69 5.64,-14.38 11.11,-15.16 0.65,-1.27 1.02,-2.64 1.02,-4.07 0,-6.79 -8.08,-12.29 -18.05,-12.29 -4.87,0 -9.3,1.31 -12.55,3.46 1.3,3.86 1.58,7.79 -11.21,9.61 -10.15,1.43 -19.07,3.41 -25.86,9.16 -10.46,8.87 -9.61,20.72 -15.55,25.21 2.64,0.65 6.01,0.65 9.6,-0.13 2.28,-0.49 4.38,-1.25 6.23,-2.17 -1.11,2.14 -3.66,4.17 -7.01,5.6 -1.1,4.19 -4.82,8.19 -9.85,10.05 -3.17,1.17 -6.32,1.3 -8.93,0.54l-12.24 -3.54c-1.51,-0.43 -3.07,-0.65 -4.72,-0.65 -9.02,0 -16.46,6.95 -17.56,15.94 -4.27,0.59 -7.53,4.25 -7.53,8.67l0 0zm121 -484.04c7.05,-6.89 15.19,-12.65 24.16,-16.99 -0.27,-1.05 -0.41,-2.13 -0.41,-3.22l0 -0.07c-37.4,6.14 -71.06,25.34 -101.44,25.17 -8.52,-0.04 -15.2,-3.29 -16.27,-8.69 -0.22,-1.06 -0.19,-2.17 0.04,-3.26 0.45,-2.09 2.32,-3.69 4.57,-3.69 2.58,0 4.66,2.08 4.66,4.66 0,1.25 -0.48,2.37 -1.25,3.21 0.87,0.08 1.77,0.13 2.7,0.13 2.4,0 4.69,-0.3 6.7,-0.85 3.29,-0.87 5.71,-3.88 5.71,-7.45 0,-4.25 -3.46,-7.7 -7.72,-7.7 -0.23,0 -0.47,0.01 -0.7,0.02 1.07,-0.45 2.26,-0.7 3.51,-0.7 4.94,0 8.96,4.01 8.96,8.96 0,0.26 -0.01,0.51 -0.04,0.76 13.35,-0.3 28.4,-12.48 31.69,-17.12 -4.19,0.96 -8.73,1.48 -13.46,1.48 -5.37,0 -10.51,-0.67 -15.15,-1.89 -6.57,-1.73 -13.03,-2.7 -18,-2.7 -16.39,0 -29.66,10.68 -29.66,23.85 0,10.89 9,20.4 21.47,22.95 28.36,5.81 61.73,-11.06 89.92,-16.88l0 0zm-159.94 38.8c0.76,-4 1.07,-7.86 0.92,-11.6l-3.58 4.19c-0.7,-1.66 -1.17,-2.69 -1.65,-3.52 -0.39,-0.68 -0.73,-1.14 -1.19,-1.23 -0.24,0.12 -0.6,0.33 -0.99,0.41 -0.45,0.11 -1.08,0.07 -1.47,0.07 -0.36,0 -0.98,0.03 -1.45,-0.07 -0.38,-0.08 -0.74,-0.29 -0.98,-0.41 -0.48,0.09 -0.8,0.55 -1.2,1.23 -0.48,0.83 -0.94,1.86 -1.65,3.52l-3.59 -4.19c-0.13,3.74 0.16,7.6 0.92,11.6 2.64,-0.58 5.37,-0.78 7.94,-0.78 2.6,0 5.33,0.2 7.97,0.78l0 0zm1.6 10.77c0.4,-4.54 -4.75,-6.15 -9.57,-6.15 -4.8,0 -9.94,1.62 -9.55,6.15 0.49,5.53 5.66,2.89 9.55,2.92 3.91,-0.03 9.08,2.6 9.57,-2.92l0 0zm13.74 -32.65c-0.95,0.25 -1.46,0.81 -1.57,1.8 -0.56,5.33 -2.72,7.49 -6.18,8.7 -0.05,5.37 -0.79,9.45 -2.25,14.5 4.1,8.58 0.96,14.57 -2.37,15.87 -3.17,1.22 -7.26,-0.43 -10.89,-0.43 -3.63,0 -7.78,1.65 -10.95,0.43 -3.34,-1.29 -6.47,-7.29 -2.39,-15.87 -1.45,-5.05 -2.2,-9.13 -2.23,-14.5 -3.46,-1.21 -5.64,-3.36 -6.2,-8.7 -0.11,-0.99 -0.62,-1.54 -1.56,-1.8 -13.64,-3.74 -14.93,-20.68 -8.02,-25.49 -0.62,7.59 -1.27,18.31 14.24,19.73 -0.25,8.9 3.59,11.28 7.56,11.28 3.25,0.01 5.1,-1.03 5.91,-1.46 2.88,-1.53 0.9,-3.87 0.15,-4.57 -1.98,-1.85 -2.99,-4.47 -2.51,-7.12 0.09,-0.47 0.27,-0.7 0.7,-0.7l5.25 0 5.26 0c0.44,0 0.63,0.24 0.7,0.7 0.48,2.64 -0.53,5.26 -2.5,7.12 -0.74,0.7 -2.72,3.04 0.16,4.57 0.8,0.43 2.67,1.47 5.91,1.46 3.96,0 7.81,-2.38 7.56,-11.28 15.5,-1.42 14.85,-12.14 14.24,-19.73 6.9,4.81 5.6,21.75 -8.02,25.49l0 0zm4.2 -29.56c0,3.89 -2.85,8.22 -6.09,8.22l-2.98 0c0.76,0.9 1.21,2.06 1.21,3.3 0,2.88 -2.33,5.22 -5.2,5.22 -2.88,0 -5.22,-2.33 -5.22,-5.22 0,-1.25 0.45,-2.4 1.2,-3.3l-3.11 0c-1.06,0 -1.89,0.44 -2.55,1.68 -0.22,-1.68 -0.43,-3.42 -0.05,-4.55 0.53,-1.58 1.75,-2.51 2.97,-2.51l13.66 0c2.53,0 4.4,-0.86 6.16,-2.84l0 0zm-1.81 -6.48l-4.77 0c-2.37,0 -4.01,-0.97 -5.4,-2.56l-5.44 -7.11c-0.9,-1.12 -1.62,-1.91 -2.77,-2.43l5.38 0c1.61,0 3.05,0.68 4.17,2.13l5.67 7.21c1.27,1.53 1.67,2.56 3.16,2.75l0 0zm-24.89 -11.72l6.96 9.77c1.1,1.62 2.14,2.5 3.63,3.12l-6.38 0c-2.45,0 -3.92,-1.14 -5,-2.9l-5.48 -8.4c-2.09,-3.15 -2.92,-3.92 -5.32,-4.8l5.92 0c2.33,0 4.51,1.52 5.66,3.2l0 0zm-15.78 1.76l5.67 7.21c1.27,1.53 1.67,2.56 3.16,2.75l-4.76 0c-2.38,0 -4.02,-0.97 -5.41,-2.56l-5.44 -7.11c-0.9,-1.12 -1.61,-1.91 -2.78,-2.43l5.38 0c1.62,0 3.05,0.68 4.17,2.13l0 0zm-3.43 24.67l-2.98 0c-3.23,0 -6.09,-4.33 -6.09,-8.22 1.77,1.97 3.64,2.84 6.18,2.84l13.66 0c1.22,0 2.44,0.93 2.97,2.51 0.38,1.14 0.16,2.87 -0.05,4.55 -0.65,-1.25 -1.48,-1.68 -2.55,-1.68l-3.11 0c0.74,0.9 1.19,2.06 1.19,3.3 0,2.88 -2.33,5.22 -5.2,5.22 -2.87,0 -5.2,-2.33 -5.2,-5.22 0,-1.25 0.44,-2.4 1.19,-3.3l0 0zm-16.84 65.1l1.65 -3.23c0.33,-0.62 0.45,-1.29 0.44,-1.95 -0.01,-0.65 -0.18,-1.33 -0.51,-1.91l4.53 8.15c0.33,0.62 0.5,1.29 0.52,1.92 0.02,0.67 -0.12,1.36 -0.44,1.97l-0.41 0.8c-2.79,5.41 -5.38,15.54 -2.5,21.42 -6.72,-2.5 -8.94,-8.39 -8.22,-13.28 -12.66,-11.98 -15.84,-24.15 -6.81,-34.36l4.63 -5.42c0.48,-0.53 0.78,-1.14 0.91,-1.77 0.16,-0.64 0.16,-1.32 -0.02,-1.99l2.42 9.01c0.16,0.67 0.18,1.36 0.03,2.01 -0.14,0.63 -0.44,1.25 -0.9,1.78l-1.41 1.65c-4.72,5.5 -3.46,12.96 3.94,19.64 0.78,-1.89 1.28,-2.84 2.16,-4.45l0 0zm310.3 33.83c0.49,-1.21 0.76,-2.54 0.76,-3.94 0,-5.64 -4.58,-10.25 -10.24,-10.25l-10.36 0c-0.71,0.01 -1.37,-0.18 -1.95,-0.48 -0.57,-0.3 -1.1,-0.76 -1.49,-1.33l-5.2 -7.67c0.4,0.59 0.91,1.03 1.5,1.32 0.58,0.32 1.25,0.49 1.95,0.48l13.65 0.01c0.7,0 1.38,0.18 1.95,0.48 0.58,0.31 1.1,0.76 1.5,1.34l-6.27 -9.17c-0.4,-0.6 -0.92,-1.03 -1.51,-1.33 -0.57,-0.33 -1.25,-0.49 -1.94,-0.49l-13.55 0.01c-0.69,0 -1.36,-0.16 -1.94,-0.48 -0.59,-0.33 -1.11,-0.77 -1.51,-1.34l-5.89 -8.66c0.39,0.59 0.92,1.03 1.5,1.33 0.59,0.31 1.25,0.49 1.95,0.49l13.59 -0.01c0.7,0 1.37,0.16 1.95,0.48 0.59,0.3 1.1,0.76 1.5,1.33l-6.27 -9.19c-0.39,-0.57 -0.92,-1.02 -1.51,-1.33 -0.57,-0.31 -1.25,-0.48 -1.94,-0.48l-10.81 0c-0.7,0 -1.36,-0.18 -1.95,-0.48 -0.57,-0.32 -1.1,-0.76 -1.5,-1.36l-7.26 -10.63c14.68,-1.76 26.52,-9.71 28.88,-20.67 3.05,-14.21 -11.08,-28.02 -31.54,-31.02 -3.45,-0.5 -6.08,-3.46 -6.08,-7.04 0,-3.03 1.91,-5.64 4.61,-6.64 -2.17,-0.95 -4.62,-1.47 -7.2,-1.47 -9.06,0 -16.39,6.49 -16.39,14.49 0,1.44 0.25,2.84 0.7,4.14 -10.14,4.39 -19.38,12.16 -26.45,20.54 7.56,-2.01 15.5,-3.1 23.7,-3.1 -0.04,-0.37 -0.06,-0.76 -0.06,-1.15 0,-6.13 4.95,-11.1 11.1,-11.1l0.16 0c-4.19,1.84 -6.22,5.86 -6.22,8.52 0,3.16 2.57,5.73 5.73,5.73 1.23,0 2.38,-0.38 3.31,-1.05 -0.22,-0.7 -0.33,-1.48 -0.33,-2.28 0,-4.39 3.55,-7.94 7.96,-7.94 0.38,0 0.78,0.02 1.15,0.08 -3.03,1.41 -5.14,4.5 -5.14,8.07 0,4.92 3.99,8.9 8.9,8.9 0.53,0 1.03,-0.04 1.53,-0.12 -0.14,-0.53 -0.22,-1.07 -0.22,-1.64 0,-3.53 2.86,-6.36 6.38,-6.36 3.53,0 6.39,2.83 6.39,6.36 0,7.68 -8.52,8.37 -14.73,6.61 -17.68,-5.11 -34.24,-7.38 -50.26,-5.15 -20.55,2.89 -54.22,16.79 -89.96,15.62 -7.99,-0.25 -16.71,-1.58 -25.49,-3.98 1.08,1.18 1.77,2 2.22,2.69 3.48,5.42 4.67,11.09 1.6,18.21 0.08,-7.97 -6.5,-14.53 -12.01,-18.55 -2.22,-1.61 -3.12,-3.15 -2.75,-5.22l1.63 -9.19c-0.12,0.68 -0.06,1.35 0.15,1.99 0.2,0.62 0.55,1.2 1.05,1.7l3.43 3.36c1.3,-9.3 -0.8,-17.97 -6.34,-26 2.45,-6.41 2.79,-13.5 1.15,-20.12 -0.65,5.02 -3.11,7.18 -5.46,8.62 -4.34,2.74 -5.06,7.32 -2.81,10.39 -3.67,-1.85 -8.73,-8.67 -5.8,-12.65 3.16,-4.31 11.81,-2.28 12.88,-9.64 -5.61,-1.79 -11.39,-0.53 -13.15,-0.06 -3.32,-3.8 -7.74,-5.69 -13.23,-5.66 -4.34,-3.94 -9.92,-5.58 -16.75,-4.9 -6.8,-0.67 -12.37,0.97 -16.71,4.9 -5.49,-0.04 -9.91,1.85 -13.23,5.66 -1.77,-0.47 -7.53,-1.72 -13.16,0.06 1.07,7.36 9.7,5.33 12.87,9.64 2.93,3.98 -2.13,10.79 -5.8,12.65 2.26,-3.07 1.53,-7.64 -2.82,-10.39 -2.32,-1.45 -4.8,-3.6 -5.44,-8.62 -1.64,6.63 -1.29,13.71 1.15,20.12 -5.54,8.02 -7.64,16.7 -6.34,26l3.44 -3.36c0.5,-0.49 0.85,-1.08 1.05,-1.7 0.21,-0.64 0.25,-1.3 0.12,-1.99l1.64 9.19c0.36,2.07 -0.51,3.61 -2.74,5.22 -5.53,4.03 -12.11,10.59 -12.03,18.55 -3.06,-7.12 -1.83,-13.03 1.62,-18.21 -10.48,-5.66 -18.46,-14.95 -19.93,-16.65 -3.17,-3.69 -2.75,-8.39 0.12,-12.5 5.54,-7.92 6.86,-16.37 -0.1,-22.14 0.05,-0.43 0.07,-0.85 0.07,-1.28 0,-5.25 -3.74,-9.64 -8.7,-10.62 0.92,1.44 1.46,3.15 1.46,4.97 0,2.11 -0.69,4.02 -1.88,5.59 0.98,1.28 1.57,2.88 1.57,4.64 0,2.34 -1.05,4.44 -2.71,5.84 0.16,-0.8 0.24,-1.64 0.24,-2.5 0,-5.41 -3.34,-9.93 -7.87,-11.17 -0.73,-3.93 -4.17,-6.92 -8.31,-6.92 -2.4,0 -4.56,1.01 -6.1,2.6 3.2,0.27 5.79,2.78 6.14,5.95 -1.53,1.16 -2.76,2.75 -3.57,4.61l0.21 0c5.54,0 10.03,4.49 10.03,10.03 0,0.62 -0.06,1.24 -0.16,1.83 -0.42,-2.27 -1.45,-4.37 -3.11,-6 -3.11,-3.04 -7.63,-3.66 -11.77,-2.08 -1.56,-1.96 -3.95,-3.2 -6.63,-3.2 -3.04,0 -5.69,1.59 -7.19,3.98 3.06,0.13 5.75,1.68 7.43,4.01 -4.34,5.58 -4.39,13.27 0.06,17.62 3.02,2.94 7.33,3.61 11.37,2.23 0.26,-0.1 0.54,-0.14 0.85,-0.14 1.49,0 2.68,1.21 2.68,2.68 0,1.47 -1.19,2.67 -2.68,2.67 -0.65,0 -1.24,-0.23 -1.7,-0.61 -1.02,-0.85 -2.33,-1.36 -3.75,-1.36 -3.23,0 -5.86,2.61 -5.86,5.86 0,0.24 0.01,0.49 0.05,0.72 -0.55,0.18 -1.14,0.27 -1.75,0.27 -1.58,0 -3.02,-0.65 -4.07,-1.68 -0.16,0.63 -0.25,1.3 -0.25,2 0,4.13 3.19,7.52 7.24,7.83 1.82,4.51 6.26,7.7 11.43,7.7 2.66,0 5.11,-0.84 7.12,-2.25 0.88,-0.61 1.94,-0.98 3.09,-0.98 2.98,0 5.4,2.42 5.4,5.4 0,2.57 -1.79,4.7 -4.2,5.26l-4.2 0.91c-0.68,0.16 -1.38,0.13 -2.01,-0.06 -0.64,-0.16 -1.23,-0.49 -1.73,-0.97l9.61 9.13c0.51,0.48 1.11,0.8 1.74,0.98 0.64,0.18 1.32,0.22 2,0.06l7.87 -1.75c0.68,-0.16 1.37,-0.12 2,0.05 0.62,0.18 1.25,0.5 1.75,0.98l6.59 6.28c-0.52,-0.48 -1.11,-0.82 -1.76,-0.98 -0.62,-0.18 -1.3,-0.22 -2,-0.06l-7.85 1.72c-0.68,0.17 -1.37,0.13 -2,-0.05 -0.63,-0.17 -1.25,-0.49 -1.74,-0.97l8.8 8.35c0.5,0.48 1.12,0.8 1.73,0.98 0.64,0.16 1.33,0.19 2.01,0.05l7.87 -1.72c0.7,-0.16 1.37,-0.13 2.01,0.06 0.63,0.17 1.23,0.5 1.75,0.98l6.59 6.25c-0.52,-0.48 -1.11,-0.79 -1.75,-0.98 -0.64,-0.16 -1.32,-0.19 -2.01,-0.05l-7.85 1.73c-0.7,0.15 -1.38,0.12 -2.01,-0.06 -0.64,-0.16 -1.23,-0.49 -1.75,-0.98l8.81 8.34c0.51,0.49 1.11,0.82 1.74,0.98 0.64,0.19 1.32,0.23 2.01,0.06l9.51 -2.07c-9.24,5.22 -19.07,11.13 -29.49,17.72 -6.16,3.89 -12.9,4.62 -20.64,1.65 -4.17,-1.59 -8.67,-1.86 -11.52,-1.37 -3.71,0.65 -6.86,2.9 -8.69,6.01 1.44,-0.56 3,-0.88 4.66,-0.88 3.46,0 6.58,1.39 8.85,3.65 -3.6,-1.51 -8.08,-1.66 -12.43,-0.07 -7.76,2.81 -12.3,10.16 -10.53,16.72 -2.91,1.12 -4.94,3.93 -4.94,7.21 0,2.17 0.88,4.13 2.32,5.53 0.77,-3.45 3.79,-6.04 7.43,-6.19 1.52,1.01 3.29,1.73 5.2,2.11 0.57,-0.99 1.3,-1.88 2.14,-2.66 -0.1,-0.61 -0.13,-1.25 -0.13,-1.89 0,-7.1 5.74,-12.85 12.84,-12.85 0.59,0 1.16,0.04 1.73,0.12 -5.64,1.35 -9.84,6.42 -9.84,12.49 0,0.77 0.07,1.52 0.21,2.25 -3.04,1.17 -5.18,4.1 -5.18,7.55 0,1.97 0.7,3.77 1.89,5.19 2.18,-4.26 6.43,-7.27 11.41,-7.75 1.88,0.55 3.87,0.84 5.91,0.84 1.3,0 2.55,-0.11 3.77,-0.32 -1.1,-1.62 -1.75,-3.56 -1.75,-5.66 0,-5.5 4.46,-9.97 9.99,-9.97 0.48,0 0.93,0.02 1.41,0.1 -5.27,2.25 -8.51,6.83 -7.39,11 0.79,2.94 3.58,5 7.18,5.69 -0.05,2.2 -0.66,4.29 -1.7,6.1 4.63,-0.33 8.59,-3.12 10.56,-7.08 5.46,-2.19 8.82,-6.87 7.7,-11.11 -0.41,-1.52 -1.35,-2.8 -2.63,-3.77 -0.01,-0.15 -0.02,-0.3 -0.02,-0.44 0,-2.93 2.38,-5.3 5.29,-5.3 2.94,0 5.31,2.37 5.31,5.3 0,1.39 -0.53,2.64 -1.4,3.58l11.09 0c0.7,0 1.36,-0.17 1.94,-0.49 0.59,-0.29 1.1,-0.74 1.49,-1.33l7.12 -10.55c0.26,-0.4 0.62,-0.7 1.02,-0.91 0.39,-0.22 0.84,-0.33 1.33,-0.33l8.71 0c-0.48,0 -0.93,0.12 -1.33,0.33 -0.39,0.22 -0.76,0.51 -1.02,0.91l-7.14 10.55c-0.4,0.59 -0.91,1.04 -1.5,1.33 -0.57,0.32 -1.23,0.49 -1.94,0.49l13.26 0c0.71,0 1.36,-0.17 1.93,-0.49 0.6,-0.29 1.13,-0.74 1.5,-1.33l7.99 -11.78c-5.51,-3.02 -7.76,-8.3 -7.76,-15.54 0,-4.51 2.54,-9.65 2.92,-12.97l0.16 -1.33c0.09,-0.68 -0.01,-1.36 -0.25,-1.99 -0.19,-0.5 -0.57,-1.2 -0.99,-1.7l6.82 6.99c0.54,0.45 0.92,1.03 1.15,1.64 0.25,0.6 0.35,1.29 0.27,1.98l-0.21 1.59c-0.32,2.79 -3.82,8.77 2.67,14.25 0.33,0.26 1.13,0.85 1.89,1.33l4.61 2.88 0 -17 6.45 0 0 18.92c0.01,0.7 0.22,1.36 0.54,1.94 0.33,0.55 0.78,1.06 1.38,1.45l6.29 4.01c0.61,0.38 1.27,0.59 1.92,0.62 0.65,0.05 1.34,-0.04 1.97,-0.31l11.61 -5.05c-0.65,0.29 -1.33,0.37 -1.97,0.33 -0.65,-0.05 -1.31,-0.25 -1.9,-0.62l-13.34 -8.5c6.48,-5.48 2.98,-11.46 2.66,-14.25l-0.19 -1.59c-0.08,-0.7 0.01,-1.39 0.24,-1.99 0.25,-0.61 0.64,-1.19 1.16,-1.64l6.82 -6.99c-0.42,0.49 -0.79,1.19 -0.99,1.7 -0.23,0.62 -0.33,1.3 -0.24,1.99l0.14 1.33c0.55,4.72 5.34,13.29 1.35,18.07l12.2 7.74c0.6,0.36 1.25,0.59 1.9,0.63 0.66,0.05 1.34,-0.05 1.99,-0.35l12.14 -5.26c-0.65,0.27 -1.32,0.36 -1.96,0.32 -0.65,-0.05 -1.31,-0.24 -1.91,-0.62l-13.18 -8.4c2.87,-5.87 0.45,-15.22 -2.33,-20.63l-0.42 -0.8c-0.31,-0.62 -0.46,-1.3 -0.43,-1.97 0,-0.63 0.16,-1.3 0.51,-1.92l4.52 -8.15c-0.33,0.59 -0.5,1.27 -0.5,1.91 -0.02,0.66 0.12,1.33 0.43,1.95l1.67 3.23c0.87,1.6 1.36,2.56 2.13,4.45 7.42,-6.69 9.07,-13.13 4.34,-18.63l-1.41 -1.66c-0.45,-0.54 -0.76,-1.15 -0.9,-1.79 -0.16,-0.65 -0.16,-1.34 0.04,-2.01l2.42 -9.01c-0.18,0.67 -0.18,1.36 -0.05,1.99 0.16,0.64 0.45,1.25 0.92,1.79l4.64 5.41c9.02,10.2 3.57,23.34 -7.2,33.36 0.6,1.92 1.11,5.51 0.68,7.48l14.3 9.05c0.6,0.4 1.25,0.6 1.91,0.65 0.65,0.06 1.33,-0.05 1.98,-0.33l10.33 -4.5c-0.59,0.24 -1.24,0.4 -1.91,0.4 -2.67,0 -4.82,-2.17 -4.82,-4.81 0,-2.15 1.4,-4.01 3.36,-4.59 39.47,-12 75.8,-43 99.66,-42.92 11.59,0.04 20.99,7.05 20.99,15.73 0,1.41 -0.25,2.77 -0.7,4.08 -5.08,14.29 2.32,27.92 21.87,33.19 3.12,0.84 5.42,3.69 5.42,7.05 0,0.67 -0.1,1.32 -0.25,1.92 0.44,0.05 0.9,0.06 1.36,0.06 5.38,0 10.14,-2.67 13.03,-6.77 3.35,-0.03 7.02,-0.23 10.78,-0.64 0.45,0.92 0.81,1.95 1.03,3.09 0.8,4.12 -0.62,7.81 -3.15,8.64 -4.49,1.46 -9.99,-0.3 -14.24,-0.25 -8.04,0.09 -14.53,6.62 -14.53,14.68 0,0.62 0.04,1.24 0.12,1.87 -2.52,1.57 -4.2,4.35 -4.2,7.55 0,1.59 0.42,3.09 1.14,4.38 2.48,-2.88 5.71,-5.12 9.38,-6.41 0.31,-7.07 6.13,-12.68 13.25,-12.68 1.09,0 2.17,0.12 3.17,0.38 -7.22,0.91 -12.83,7.08 -12.83,14.56 0,0.53 0.04,1.07 0.1,1.6 -0.9,1.1 -1.43,2.48 -1.43,4 0,1.91 0.86,3.65 2.21,4.81 1.36,-2.99 4.66,-5.8 8.91,-7.24 2.86,-0.96 5.67,-1.15 8.02,-0.67 -0.38,-1.13 -0.56,-2.32 -0.56,-3.55 0,-6.39 5.16,-11.56 11.55,-11.56 0.59,0 1.17,0.05 1.73,0.13 -4.45,0.59 -7.87,4.41 -7.87,9.02 0,3.05 1.51,5.77 3.81,7.43 0,0.15 -0.01,0.33 -0.01,0.49 0,2.51 1.15,4.74 2.94,6.21 0.81,-4.19 4.48,-7.35 8.91,-7.35 3.78,0 6.91,-0.48 9.24,-1.25 3.95,-1.28 6.83,-4.94 6.83,-9.3 0,-3.03 -1.37,-5.73 -3.55,-7.51 1.08,-4.91 0.89,-12.96 -0.78,-19.66 0.33,-0.05 0.68,-0.07 1.04,-0.07 2.76,-0.01 5.19,1.41 6.6,3.56l0 0zm-201.11 83.14c-0.22,-1.06 -0.19,-2.17 0.04,-3.26 0.45,-2.1 2.32,-3.69 4.57,-3.69 2.59,0 4.67,2.09 4.67,4.66 0,1.25 -0.48,2.37 -1.26,3.2 0.87,0.09 1.77,0.13 2.71,0.13 2.4,0 4.69,-0.31 6.7,-0.85 3.29,-0.87 5.7,-3.88 5.7,-7.46 0,-4.25 -3.46,-7.69 -7.71,-7.69 -0.23,0 -0.47,0.01 -0.7,0.02 1.07,-0.45 2.26,-0.7 3.51,-0.7 4.94,0 8.96,4.01 8.96,8.96 0,0.25 -0.01,0.52 -0.04,0.77 13.35,-0.3 28.41,-12.48 31.69,-17.12 -4.18,0.96 -8.72,1.48 -13.46,1.48 -5.37,0 -10.51,-0.67 -15.15,-1.89 -6.57,-1.75 -13.03,-2.71 -17.99,-2.71 -16.39,0 -29.66,10.68 -29.66,23.86 0,10.89 9,20.4 21.47,22.94 28.36,5.81 61.73,-11.06 89.92,-16.88 7.05,-6.89 15.19,-12.65 24.16,-17 -0.27,-1.04 -0.41,-2.11 -0.41,-3.21l0 -0.07c-37.4,6.15 -71.06,25.34 -101.44,25.17 -8.52,-0.04 -15.2,-3.29 -16.27,-8.69l0 0zm-0.87 -69.04c0.58,0 1.14,0.05 1.69,0.11 -5.6,1.62 -10.12,5.78 -12.22,11.17 -3.48,1.14 -5.99,4.44 -5.99,8.3 0,1.8 0.55,3.48 1.48,4.87 3.03,-3.37 7,-5.9 11.51,-7.12 1.29,-6.49 6.69,-11.49 13.36,-12.19 -5.83,2.44 -9.92,8.21 -9.92,14.92 0,2.37 0.52,4.63 1.44,6.66 1.03,-3.69 4.42,-6.41 8.43,-6.41 1.02,0 1.99,0.16 2.87,0.49 1.25,0.45 2.6,0.7 3.99,0.7 6.47,0 11.73,-5.26 11.73,-11.75 0,-1.3 -0.21,-2.54 -0.59,-3.69 3.07,0.87 5.32,3.73 5.32,7.1 0,1.54 -0.47,2.97 -1.27,4.17 0.86,0.16 1.74,0.22 2.66,0.22 7.62,0 13.91,-5.73 14.79,-13.13 3.83,-2.06 7.19,-4.86 10.08,-8.35l2.03 9.91c0.15,0.7 0.1,1.39 -0.08,2.02 -0.18,0.62 -0.51,1.22 -1,1.73l8.41 -8.65c0.49,-0.5 0.82,-1.11 0.99,-1.73 0.19,-0.63 0.23,-1.31 0.08,-2l-2.48 -12.11c-0.14,-0.7 -0.11,-1.38 0.09,-2 0.18,-0.64 0.51,-1.25 1,-1.75l6.62 -6.73c-0.49,0.51 -0.83,1.11 -1.01,1.72 -0.18,0.65 -0.22,1.33 -0.07,2.01l2.47 12.13c0.15,0.68 0.11,1.35 -0.07,2 -0.18,0.62 -0.5,1.2 -0.98,1.71l7.5 -7.81c0.48,-0.5 0.81,-1.09 0.99,-1.72 0.19,-0.62 0.23,-1.33 0.07,-2l-2.47 -12.08c-0.14,-0.7 -0.11,-1.38 0.09,-2 0.18,-0.65 0.51,-1.23 1,-1.73l6.62 -6.75c-0.49,0.5 -0.83,1.1 -1.01,1.73 -0.18,0.62 -0.22,1.32 -0.07,2l2.49 12.12c0.15,0.68 0.1,1.36 -0.08,2 -0.18,0.62 -0.5,1.2 -0.98,1.71l7.5 -7.8c0.49,-0.5 0.81,-1.09 0.99,-1.73 0.19,-0.63 0.23,-1.31 0.09,-2.01l-1.21 -5.91c-1.27,-6.69 5.64,-14.38 11.11,-15.16 0.65,-1.27 1.02,-2.64 1.02,-4.08 0,-6.77 -8.08,-12.28 -18.05,-12.28 -4.87,0 -9.3,1.3 -12.55,3.46 1.3,3.85 1.58,7.77 -11.21,9.6 -10.15,1.45 -19.07,3.41 -25.86,9.16 -10.46,8.88 -9.61,20.73 -15.55,25.22 2.64,0.65 6.01,0.65 9.6,-0.13 2.28,-0.49 4.38,-1.25 6.23,-2.17 -1.11,2.14 -3.66,4.16 -7.01,5.58 -1.1,4.2 -4.82,8.19 -9.85,10.06 -3.17,1.17 -6.32,1.29 -8.93,0.54l-12.24 -3.54c-1.51,-0.43 -3.07,-0.67 -4.72,-0.67 -9.02,0 -16.46,6.95 -17.56,15.94 -4.26,0.6 -7.53,4.27 -7.53,8.69 0,1.63 0.44,3.14 1.2,4.44 2.93,-2.98 6.66,-5.19 10.82,-6.32 1.74,-6.17 7.42,-10.7 14.14,-10.7l0 0zm-65.1 111.64c0.76,-4 1.07,-7.86 0.92,-11.6l-3.58 4.19c-0.7,-1.67 -1.17,-2.69 -1.65,-3.53 -0.39,-0.67 -0.73,-1.14 -1.19,-1.22 -0.24,0.12 -0.6,0.32 -0.99,0.41 -0.45,0.11 -1.08,0.07 -1.47,0.07 -0.36,0 -0.98,0.04 -1.45,-0.07 -0.38,-0.09 -0.74,-0.29 -0.98,-0.41 -0.48,0.08 -0.8,0.55 -1.2,1.22 -0.48,0.83 -0.94,1.86 -1.65,3.53l-3.59 -4.19c-0.13,3.73 0.16,7.59 0.92,11.6 2.64,-0.58 5.37,-0.78 7.94,-0.78 2.6,0 5.33,0.2 7.97,0.78l0 0zm1.6 10.77c0.4,-4.54 -4.75,-6.15 -9.57,-6.15 -4.8,0 -9.94,1.62 -9.55,6.15 0.49,5.53 5.66,2.89 9.55,2.92 3.91,-0.02 9.08,2.61 9.57,-2.92l0 0zm13.74 -32.65c-0.95,0.25 -1.46,0.8 -1.57,1.79 -0.56,5.33 -2.72,7.49 -6.18,8.7 -0.05,5.37 -0.79,9.45 -2.25,14.5 4.1,8.58 0.96,14.57 -2.37,15.85 -3.17,1.23 -7.26,-0.42 -10.89,-0.42 -3.63,0 -7.78,1.65 -10.95,0.42 -3.34,-1.28 -6.47,-7.27 -2.39,-15.85 -1.45,-5.05 -2.2,-9.13 -2.23,-14.5 -3.46,-1.21 -5.64,-3.36 -6.2,-8.7 -0.11,-0.99 -0.62,-1.54 -1.56,-1.79 -13.64,-3.74 -14.93,-20.69 -8.02,-25.5 -0.62,7.6 -1.27,18.31 14.24,19.73 -0.25,8.9 3.59,11.28 7.56,11.28 3.25,0.01 5.1,-1.03 5.91,-1.46 2.88,-1.53 0.9,-3.88 0.15,-4.59 -1.98,-1.84 -2.99,-4.49 -2.51,-7.09 0.09,-0.49 0.27,-0.72 0.7,-0.72l5.25 0 5.26 0c0.44,0 0.63,0.23 0.7,0.72 0.48,2.6 -0.53,5.25 -2.5,7.09 -0.74,0.71 -2.72,3.05 0.16,4.59 0.8,0.43 2.67,1.47 5.91,1.46 3.96,0 7.81,-2.38 7.56,-11.28 15.5,-1.42 14.85,-12.13 14.24,-19.73 6.9,4.81 5.6,21.75 -8.02,25.5l0 0zm4.2 -29.57c0,3.89 -2.85,8.22 -6.09,8.22l-2.98 0c0.76,0.88 1.21,2.05 1.21,3.3 0,2.88 -2.33,5.22 -5.2,5.22 -2.88,0 -5.22,-2.33 -5.22,-5.22 0,-1.25 0.45,-2.42 1.2,-3.3l-3.11 0c-1.06,0 -1.89,0.44 -2.55,1.68 -0.22,-1.68 -0.43,-3.41 -0.05,-4.57 0.53,-1.57 1.75,-2.51 2.97,-2.51l13.66 0c2.53,0 4.4,-0.85 6.16,-2.82l0 0zm-1.81 -6.47l-4.77 0c-2.37,0 -4.01,-0.98 -5.4,-2.57l-5.44 -7.11c-0.9,-1.12 -1.62,-1.91 -2.77,-2.43l5.38 0c1.61,0 3.05,0.68 4.17,2.13l5.67 7.21c1.27,1.53 1.67,2.56 3.16,2.76l0 0zm-24.89 -11.74l6.96 9.77c1.1,1.62 2.14,2.5 3.63,3.12l-6.38 0c-2.45,0 -3.92,-1.14 -5,-2.89l-5.48 -8.4c-2.09,-3.15 -2.92,-3.92 -5.32,-4.8l5.92 0c2.33,0 4.51,1.52 5.66,3.2l0 0zm-15.78 1.76l5.67 7.21c1.27,1.53 1.67,2.56 3.16,2.76l-4.76 0c-2.38,0 -4.02,-0.98 -5.41,-2.57l-5.44 -7.11c-0.9,-1.12 -1.61,-1.91 -2.78,-2.43l5.38 0c1.62,0 3.05,0.68 4.17,2.13l0 0zm-3.43 24.67l-2.98 0c-3.23,0 -6.09,-4.33 -6.09,-8.22 1.77,1.97 3.64,2.82 6.18,2.82l13.66 0c1.22,0 2.44,0.95 2.97,2.51 0.38,1.16 0.16,2.88 -0.05,4.57 -0.65,-1.25 -1.48,-1.69 -2.55,-1.69l-3.11 0c0.74,0.88 1.19,2.05 1.19,3.3 0,2.88 -2.33,5.22 -5.2,5.22 -2.87,0 -5.2,-2.33 -5.2,-5.22 0,-1.25 0.44,-2.42 1.19,-3.3l0 0zm-16.84 65.11l1.65 -3.25c0.33,-0.62 0.45,-1.29 0.44,-1.95 -0.01,-0.65 -0.18,-1.31 -0.51,-1.91l4.53 8.16c0.33,0.61 0.5,1.27 0.52,1.93 0.02,0.66 -0.12,1.34 -0.44,1.96l-0.41 0.8c-2.79,5.41 -5.38,15.54 -2.5,21.41 -6.72,-2.5 -8.94,-8.39 -8.22,-13.27 -12.66,-12 -15.84,-24.17 -6.81,-34.36l4.63 -5.43c0.48,-0.53 0.78,-1.14 0.91,-1.77 0.16,-0.63 0.16,-1.31 -0.02,-1.99l2.42 9.01c0.16,0.68 0.18,1.36 0.03,2.01 -0.14,0.64 -0.44,1.25 -0.9,1.77l-1.41 1.67c-4.72,5.5 -3.46,12.96 3.94,19.64 0.78,-1.88 1.28,-2.85 2.16,-4.44l0 0zm310.3 33.82c0.49,-1.21 0.76,-2.54 0.76,-3.92 0,-5.66 -4.58,-10.27 -10.24,-10.27l-10.36 0c-0.71,0.01 -1.37,-0.16 -1.95,-0.48 -0.57,-0.3 -1.1,-0.76 -1.49,-1.33l-5.2 -7.67c0.4,0.57 0.91,1.03 1.5,1.33 0.58,0.31 1.25,0.49 1.95,0.48l13.65 0.01c0.7,0 1.38,0.16 1.95,0.48 0.58,0.3 1.1,0.76 1.5,1.33l-6.27 -9.18c-0.4,-0.59 -0.92,-1.03 -1.51,-1.33 -0.57,-0.31 -1.25,-0.49 -1.94,-0.49l-13.55 0.01c-0.69,0 -1.36,-0.16 -1.94,-0.48 -0.59,-0.3 -1.11,-0.76 -1.51,-1.33l-5.89 -8.67c0.39,0.59 0.92,1.03 1.5,1.33 0.59,0.31 1.25,0.49 1.95,0.49l13.59 -0.01c0.7,0 1.37,0.17 1.95,0.48 0.59,0.3 1.1,0.74 1.5,1.33l-6.27 -9.17c-0.39,-0.59 -0.92,-1.03 -1.51,-1.34 -0.57,-0.32 -1.25,-0.48 -1.94,-0.48l-10.81 0c-0.7,0 -1.36,-0.18 -1.95,-0.48 -0.57,-0.33 -1.1,-0.76 -1.5,-1.36l-7.26 -10.65c14.68,-1.74 26.52,-9.7 28.88,-20.66 3.05,-14.21 -11.08,-28.02 -31.54,-31.02 -3.45,-0.5 -6.08,-3.46 -6.08,-7.04 0,-3.03 1.91,-5.64 4.61,-6.64 -2.17,-0.95 -4.62,-1.47 -7.2,-1.47 -9.06,0 -16.39,6.49 -16.39,14.49 0,1.44 0.25,2.84 0.7,4.14 -10.14,4.39 -19.38,12.16 -26.45,20.54 7.56,-2.01 15.5,-3.1 23.7,-3.1 -0.04,-0.37 -0.06,-0.76 -0.06,-1.15 0,-6.14 4.95,-11.1 11.1,-11.1l0.16 0c-4.19,1.83 -6.22,5.86 -6.22,8.52 0,3.17 2.57,5.73 5.73,5.73 1.23,0 2.38,-0.38 3.31,-1.05 -0.22,-0.7 -0.33,-1.48 -0.33,-2.27 0,-4.39 3.55,-7.94 7.96,-7.94 0.38,0 0.78,0.02 1.15,0.08 -3.03,1.41 -5.14,4.5 -5.14,8.06 0,4.92 3.99,8.9 8.9,8.9 0.53,0 1.03,-0.04 1.53,-0.12 -0.14,-0.53 -0.22,-1.07 -0.22,-1.64 0,-3.53 2.86,-6.38 6.38,-6.38 3.53,0 6.39,2.85 6.39,6.38 0,7.68 -8.52,8.39 -14.73,6.6 -17.68,-5.11 -34.24,-7.38 -50.26,-5.15 -20.55,2.91 -54.22,16.8 -89.96,15.64 -7.99,-0.25 -16.71,-1.58 -25.49,-3.99 1.08,1.19 1.77,2 2.22,2.69 3.48,5.42 4.67,11.09 1.6,18.21 0.08,-7.97 -6.5,-14.53 -12.01,-18.56 -2.22,-1.6 -3.12,-3.14 -2.75,-5.21l1.63 -9.19c-0.12,0.68 -0.06,1.37 0.15,1.96 0.2,0.65 0.55,1.23 1.05,1.72l3.43 3.36c1.3,-9.31 -0.8,-17.97 -6.34,-26.01 2.45,-6.4 2.79,-13.49 1.15,-20.11 -0.65,5.02 -3.11,7.18 -5.46,8.62 -4.34,2.73 -5.06,7.32 -2.81,10.38 -3.67,-1.85 -8.73,-8.67 -5.8,-12.64 3.16,-4.31 11.81,-2.28 12.88,-9.65 -5.61,-1.78 -11.39,-0.54 -13.15,-0.06 -3.32,-3.8 -7.74,-5.69 -13.23,-5.66 -4.34,-3.94 -9.92,-5.58 -16.75,-4.91 -6.8,-0.67 -12.37,0.97 -16.71,4.91 -5.49,-0.04 -9.91,1.85 -13.23,5.66 -1.77,-0.48 -7.53,-1.72 -13.16,0.06 1.07,7.36 9.7,5.34 12.87,9.65 2.93,3.97 -2.13,10.79 -5.8,12.64 2.26,-3.06 1.53,-7.65 -2.82,-10.38 -2.32,-1.45 -4.8,-3.6 -5.44,-8.62 -1.64,6.62 -1.29,13.71 1.15,20.11 -5.54,8.04 -7.64,16.7 -6.34,26.01l3.44 -3.36c0.5,-0.49 0.85,-1.08 1.05,-1.72 0.21,-0.6 0.25,-1.28 0.12,-1.96l1.64 9.19c0.36,2.07 -0.51,3.61 -2.74,5.21 -5.53,4.02 -12.11,10.59 -12.03,18.56 -3.06,-7.12 -1.83,-13.04 1.62,-18.21 -10.48,-5.66 -18.46,-14.96 -19.93,-16.65 -3.17,-3.69 -2.75,-8.39 0.12,-12.5 5.54,-7.92 6.86,-16.37 -0.1,-22.14 0.05,-0.43 0.07,-0.87 0.07,-1.28 0,-5.25 -3.74,-9.65 -8.7,-10.63 0.92,1.45 1.46,3.16 1.46,4.98 0,2.09 -0.69,4.02 -1.88,5.58 0.98,1.29 1.57,2.89 1.57,4.65 0,2.33 -1.05,4.44 -2.71,5.83 0.16,-0.79 0.24,-1.63 0.24,-2.5 0,-5.4 -3.34,-9.92 -7.87,-11.17 -0.73,-3.92 -4.17,-6.9 -8.31,-6.9 -2.4,0 -4.56,0.99 -6.1,2.59 3.2,0.25 5.79,2.77 6.14,5.95 -1.53,1.16 -2.76,2.74 -3.57,4.61l0.21 0c5.54,0 10.03,4.49 10.03,10.03 0,0.62 -0.06,1.25 -0.16,1.83 -0.42,-2.26 -1.45,-4.37 -3.11,-5.99 -3.11,-3.04 -7.63,-3.66 -11.77,-2.08 -1.56,-1.95 -3.95,-3.2 -6.63,-3.2 -3.04,0 -5.69,1.59 -7.19,3.98 3.06,0.13 5.75,1.68 7.43,4.01 -4.34,5.57 -4.39,13.27 0.06,17.62 3.02,2.94 7.33,3.62 11.37,2.24 0.26,-0.1 0.54,-0.14 0.85,-0.14 1.49,0 2.68,1.2 2.68,2.68 0,1.47 -1.19,2.67 -2.68,2.67 -0.65,0 -1.24,-0.23 -1.7,-0.61 -1.02,-0.85 -2.33,-1.35 -3.75,-1.35 -3.23,0 -5.86,2.61 -5.86,5.86 0,0.24 0.01,0.49 0.05,0.7 -0.55,0.19 -1.14,0.28 -1.75,0.28 -1.58,0 -3.02,-0.65 -4.07,-1.68 -0.16,0.65 -0.25,1.31 -0.25,2 0,4.14 3.19,7.53 7.24,7.84 1.82,4.51 6.26,7.71 11.43,7.71 2.66,0 5.11,-0.84 7.12,-2.25 0.88,-0.61 1.94,-0.98 3.09,-0.98 2.98,0 5.4,2.42 5.4,5.39 0,2.57 -1.79,4.71 -4.2,5.26l-4.2 0.91c-0.68,0.16 -1.38,0.13 -2.01,-0.06 -0.64,-0.15 -1.23,-0.49 -1.73,-0.97l9.61 9.13c0.51,0.48 1.11,0.8 1.74,0.98 0.64,0.18 1.32,0.22 2,0.06l7.87 -1.74c0.68,-0.16 1.37,-0.12 2,0.05 0.62,0.18 1.25,0.5 1.75,0.98l6.59 6.28c-0.52,-0.48 -1.11,-0.81 -1.76,-0.98 -0.62,-0.18 -1.3,-0.22 -2,-0.06l-7.85 1.73c-0.68,0.16 -1.37,0.12 -2,-0.06 -0.63,-0.17 -1.25,-0.49 -1.74,-0.97l8.8 8.34c0.5,0.49 1.12,0.81 1.73,0.99 0.64,0.18 1.33,0.2 2.01,0.05l7.87 -1.72c0.7,-0.16 1.37,-0.12 2.01,0.06 0.63,0.17 1.23,0.5 1.75,0.98l6.59 6.27c-0.52,-0.48 -1.11,-0.81 -1.75,-0.98 -0.64,-0.18 -1.32,-0.2 -2.01,-0.06l-7.85 1.73c-0.7,0.16 -1.38,0.12 -2.01,-0.06 -0.64,-0.17 -1.23,-0.49 -1.75,-0.97l8.81 8.34c0.51,0.49 1.11,0.81 1.74,0.98 0.64,0.18 1.32,0.22 2.01,0.06l9.51 -2.08c-9.24,5.21 -19.07,11.12 -29.49,17.72 -6.16,3.89 -12.9,4.62 -20.64,1.65 -4.17,-1.59 -8.67,-1.84 -11.52,-1.36 -3.71,0.63 -6.86,2.88 -8.69,6.01 1.44,-0.57 3,-0.9 4.66,-0.9 3.46,0 6.58,1.4 8.85,3.65 -3.6,-1.51 -8.08,-1.66 -12.43,-0.07 -7.76,2.82 -12.3,10.16 -10.53,16.73 -2.91,1.11 -4.94,3.92 -4.94,7.2 0,2.17 0.89,4.13 2.32,5.53 0.77,-3.45 3.78,-6.04 7.43,-6.18 1.52,1.01 3.29,1.71 5.2,2.09 0.57,-0.99 1.3,-1.89 2.14,-2.64 -0.1,-0.62 -0.13,-1.25 -0.13,-1.9 0,-7.09 5.75,-12.85 12.84,-12.85 0.59,0 1.16,0.03 1.73,0.12 -5.64,1.35 -9.84,6.42 -9.84,12.49 0,0.77 0.07,1.52 0.21,2.25 -3.04,1.17 -5.18,4.1 -5.18,7.55 0,1.97 0.7,3.78 1.89,5.19 2.18,-4.26 6.43,-7.27 11.41,-7.75 1.88,0.55 3.87,0.85 5.91,0.85 1.3,0 2.55,-0.12 3.77,-0.33 -1.1,-1.62 -1.75,-3.56 -1.75,-5.65 0,-5.52 4.46,-9.97 9.99,-9.97 0.48,0 0.93,0.03 1.41,0.1 -5.27,2.23 -8.51,6.82 -7.39,10.99 0.79,2.96 3.58,5 7.18,5.69 -0.05,2.22 -0.66,4.29 -1.7,6.1 4.63,-0.33 8.59,-3.12 10.56,-7.08 5.46,-2.19 8.82,-6.87 7.7,-11.11 -0.41,-1.52 -1.35,-2.8 -2.63,-3.77 -0.01,-0.15 -0.02,-0.3 -0.02,-0.44 0,-2.92 2.38,-5.3 5.29,-5.3 2.94,0 5.31,2.38 5.31,5.3 0,1.39 -0.53,2.64 -1.4,3.59l11.09 0c0.7,0 1.36,-0.18 1.94,-0.49 0.59,-0.3 1.1,-0.76 1.49,-1.34l7.12 -10.55c0.26,-0.39 0.62,-0.7 1.02,-0.91 0.39,-0.2 0.84,-0.33 1.33,-0.33l8.71 0c-0.48,0 -0.93,0.13 -1.33,0.33 -0.39,0.22 -0.76,0.51 -1.02,0.91l-7.14 10.57c-0.4,0.57 -0.91,1.03 -1.5,1.33 -0.57,0.31 -1.23,0.49 -1.94,0.49l13.26 0c0.71,0 1.36,-0.18 1.93,-0.49 0.6,-0.3 1.13,-0.76 1.5,-1.34l7.99 -11.78c-5.51,-3.02 -7.76,-8.29 -7.76,-15.54 0,-4.51 2.54,-9.65 2.92,-12.97l0.16 -1.32c0.09,-0.7 -0.01,-1.37 -0.25,-1.98 -0.19,-0.5 -0.57,-1.22 -0.99,-1.71l6.82 6.99c0.54,0.45 0.92,1.03 1.15,1.64 0.25,0.61 0.35,1.29 0.27,2l-0.21 1.59c-0.32,2.77 -3.82,8.76 2.67,14.24 0.33,0.27 1.13,0.85 1.89,1.33l4.61 2.9 0 -17 6.45 0 0 18.92c0.01,0.7 0.22,1.36 0.54,1.94 0.33,0.56 0.78,1.08 1.38,1.45l6.29 4.01c0.61,0.37 1.27,0.59 1.92,0.63 0.65,0.05 1.34,-0.05 1.97,-0.32l11.61 -5.05c-0.65,0.29 -1.33,0.38 -1.97,0.32 -0.65,-0.05 -1.31,-0.25 -1.9,-0.62l-13.34 -8.5c6.48,-5.48 2.98,-11.46 2.66,-14.24l-0.19 -1.59c-0.08,-0.71 0.01,-1.39 0.24,-2 0.25,-0.61 0.64,-1.19 1.16,-1.64l6.82 -6.99c-0.42,0.49 -0.79,1.2 -0.99,1.71 -0.23,0.61 -0.33,1.28 -0.24,1.98l0.14 1.32c0.55,4.72 5.34,13.29 1.35,18.08l12.2 7.73c0.6,0.37 1.25,0.59 1.9,0.64 0.66,0.05 1.34,-0.05 1.99,-0.34l12.14 -5.27c-0.65,0.27 -1.32,0.37 -1.96,0.32 -0.65,-0.05 -1.31,-0.25 -1.91,-0.63l-13.18 -8.39c2.87,-5.88 0.45,-15.23 -2.33,-20.64l-0.42 -0.8c-0.31,-0.62 -0.46,-1.3 -0.43,-1.96 0,-0.65 0.16,-1.31 0.51,-1.92l4.52 -8.16c-0.33,0.6 -0.5,1.27 -0.5,1.92 -0.02,0.65 0.12,1.33 0.43,1.95l1.67 3.24c0.87,1.59 1.36,2.56 2.13,4.44 7.42,-6.69 9.07,-13.13 4.34,-18.63l-1.41 -1.67c-0.45,-0.53 -0.76,-1.14 -0.9,-1.77 -0.16,-0.65 -0.16,-1.34 0.04,-2.01l2.42 -9.01c-0.18,0.67 -0.18,1.35 -0.05,1.99 0.16,0.63 0.45,1.25 0.92,1.77l4.64 5.43c9.02,10.19 3.57,23.33 -7.2,33.36 0.6,1.91 1.11,5.52 0.68,7.46l14.3 9.07c0.6,0.38 1.25,0.59 1.91,0.64 0.65,0.06 1.33,-0.05 1.98,-0.33l10.33 -4.5c-0.59,0.25 -1.24,0.4 -1.91,0.4 -2.67,0 -4.82,-2.16 -4.82,-4.81 0,-2.15 1.4,-4.01 3.36,-4.59 39.47,-12.01 75.8,-43 99.66,-42.93 11.59,0.05 20.99,7.06 20.99,15.76 0,1.4 -0.25,2.76 -0.7,4.07 -5.08,14.28 2.32,27.92 21.87,33.19 3.12,0.84 5.42,3.69 5.42,7.06 0,0.65 -0.1,1.3 -0.25,1.9 0.44,0.05 0.9,0.06 1.36,0.06 5.38,0 10.14,-2.68 13.03,-6.78 3.35,-0.02 7.02,-0.23 10.78,-0.62 0.45,0.91 0.81,1.95 1.03,3.08 0.8,4.12 -0.62,7.82 -3.15,8.64 -4.49,1.46 -9.99,-0.29 -14.24,-0.25 -8.04,0.09 -14.53,6.62 -14.53,14.67 0,0.64 0.04,1.26 0.12,1.88 -2.52,1.57 -4.2,4.37 -4.2,7.55 0,1.59 0.42,3.09 1.14,4.38 2.48,-2.88 5.71,-5.12 9.38,-6.41 0.31,-7.06 6.13,-12.68 13.25,-12.68 1.09,0 2.17,0.13 3.17,0.38 -7.22,0.91 -12.83,7.08 -12.83,14.56 0,0.54 0.04,1.08 0.1,1.62 -0.9,1.08 -1.43,2.47 -1.43,3.98 0,1.93 0.86,3.65 2.21,4.81 1.36,-2.99 4.66,-5.8 8.91,-7.24 2.86,-0.96 5.67,-1.15 8.02,-0.67 -0.38,-1.13 -0.56,-2.32 -0.56,-3.55 0,-6.39 5.16,-11.56 11.55,-11.56 0.59,0 1.17,0.05 1.73,0.13 -4.45,0.61 -7.87,4.41 -7.87,9.02 0,3.07 1.51,5.77 3.81,7.43 0,0.16 -0.01,0.33 -0.01,0.49 0,2.51 1.15,4.74 2.94,6.21 0.81,-4.19 4.48,-7.35 8.91,-7.35 3.78,0 6.91,-0.48 9.24,-1.25 3.95,-1.29 6.83,-4.94 6.83,-9.31 0,-3.03 -1.37,-5.73 -3.55,-7.51 1.08,-4.91 0.89,-12.96 -0.78,-19.66 0.33,-0.05 0.68,-0.07 1.04,-0.07 2.76,-0 5.19,1.41 6.6,3.56l0 0zm-201.11 83.14c-0.22,-1.08 -0.19,-2.17 0.04,-3.26 0.45,-2.11 2.32,-3.69 4.57,-3.69 2.59,0 4.67,2.09 4.67,4.68 0,1.23 -0.48,2.35 -1.26,3.19 0.87,0.09 1.77,0.13 2.71,0.13 2.4,0 4.69,-0.3 6.7,-0.84 3.29,-0.88 5.7,-3.89 5.7,-7.45 0,-4.26 -3.46,-7.7 -7.71,-7.7 -0.23,0 -0.47,0 -0.7,0.02 1.07,-0.46 2.26,-0.7 3.51,-0.7 4.94,0 8.96,4.01 8.96,8.96 0,0.25 -0.01,0.52 -0.04,0.76 13.35,-0.29 28.41,-12.47 31.69,-17.11 -4.18,0.96 -8.72,1.49 -13.46,1.49 -5.37,0 -10.51,-0.66 -15.15,-1.89 -6.57,-1.73 -13.03,-2.71 -17.99,-2.71 -16.39,0 -29.66,10.68 -29.66,23.87 0,10.89 9,20.4 21.47,22.95 28.36,5.79 61.73,-11.06 89.92,-16.9 7.05,-6.89 15.19,-12.64 24.16,-17 -0.27,-1.03 -0.41,-2.11 -0.41,-3.21l0 -0.07c-37.4,6.15 -71.06,25.34 -101.44,25.18 -8.52,-0.03 -15.2,-3.31 -16.27,-8.7l0 0zm-0.87 -69.03c0.58,0 1.14,0.04 1.69,0.1 -5.6,1.62 -10.12,5.79 -12.22,11.18 -3.48,1.15 -5.99,4.44 -5.99,8.3 0,1.8 0.55,3.48 1.48,4.87 3.03,-3.37 7,-5.9 11.51,-7.12 1.29,-6.49 6.69,-11.49 13.36,-12.19 -5.83,2.44 -9.92,8.21 -9.92,14.92 0,2.38 0.52,4.63 1.44,6.66 1.03,-3.69 4.42,-6.41 8.43,-6.41 1.02,0 1.99,0.16 2.87,0.49 1.25,0.45 2.6,0.69 3.99,0.69 6.47,0 11.73,-5.25 11.73,-11.73 0,-1.29 -0.21,-2.54 -0.59,-3.71 3.07,0.9 5.32,3.74 5.32,7.12 0,1.54 -0.47,2.97 -1.27,4.16 0.86,0.16 1.74,0.23 2.66,0.23 7.62,0 13.91,-5.73 14.79,-13.11 3.83,-2.08 7.19,-4.88 10.08,-8.38l2.03 9.92c0.15,0.69 0.1,1.37 -0.08,2.01 -0.18,0.62 -0.51,1.23 -1,1.72l8.41 -8.64c0.49,-0.5 0.82,-1.1 0.99,-1.73 0.19,-0.64 0.23,-1.32 0.08,-2l-2.48 -12.11c-0.14,-0.68 -0.11,-1.37 0.09,-2 0.18,-0.64 0.51,-1.23 1,-1.73l6.62 -6.75c-0.49,0.5 -0.83,1.1 -1.01,1.73 -0.18,0.63 -0.22,1.31 -0.07,2.01l2.47 12.12c0.15,0.68 0.11,1.36 -0.07,2 -0.18,0.62 -0.5,1.21 -0.98,1.71l7.5 -7.8c0.48,-0.5 0.81,-1.1 0.99,-1.72 0.19,-0.64 0.23,-1.33 0.07,-2.01l-2.47 -12.09c-0.14,-0.68 -0.11,-1.37 0.09,-2 0.18,-0.63 0.51,-1.23 1,-1.73l6.62 -6.74c-0.49,0.5 -0.83,1.1 -1.01,1.73 -0.18,0.63 -0.22,1.31 -0.07,2l2.49 12.12c0.15,0.69 0.1,1.38 -0.08,2 -0.18,0.62 -0.5,1.21 -0.98,1.71l7.5 -7.79c0.49,-0.5 0.81,-1.1 0.99,-1.73 0.19,-0.63 0.23,-1.31 0.09,-2.01l-1.21 -5.91c-1.27,-6.69 5.64,-14.38 11.11,-15.16 0.65,-1.27 1.02,-2.64 1.02,-4.07 0,-6.78 -8.08,-12.29 -18.05,-12.29 -4.87,0 -9.3,1.3 -12.55,3.46 1.3,3.85 1.58,7.79 -11.21,9.61 -10.15,1.43 -19.07,3.41 -25.86,9.16 -10.46,8.86 -9.61,20.72 -15.55,25.21 2.64,0.65 6.01,0.65 9.6,-0.13 2.28,-0.49 4.38,-1.25 6.23,-2.17 -1.11,2.13 -3.66,4.15 -7.01,5.59 -1.1,4.19 -4.82,8.19 -9.85,10.05 -3.17,1.17 -6.32,1.29 -8.93,0.54l-12.24 -3.54c-1.51,-0.43 -3.07,-0.65 -4.72,-0.65 -9.02,0 -16.46,6.95 -17.56,15.94 -4.26,0.6 -7.53,4.26 -7.53,8.67 0,1.63 0.44,3.14 1.2,4.44 2.93,-2.98 6.66,-5.19 10.82,-6.32 1.74,-6.17 7.42,-10.69 14.14,-10.69l0 0zm-65.1 111.64c0.76,-4 1.07,-7.87 0.92,-11.6l-3.58 4.18c-0.7,-1.67 -1.17,-2.69 -1.65,-3.52 -0.39,-0.68 -0.73,-1.15 -1.19,-1.23 -0.24,0.12 -0.6,0.31 -0.99,0.41 -0.45,0.11 -1.08,0.07 -1.47,0.07 -0.36,0 -0.98,0.04 -1.45,-0.07 -0.38,-0.1 -0.74,-0.29 -0.98,-0.41 -0.48,0.08 -0.8,0.55 -1.2,1.23 -0.48,0.82 -0.94,1.84 -1.65,3.52l-3.59 -4.18c-0.13,3.73 0.16,7.61 0.92,11.6 2.64,-0.59 5.37,-0.79 7.94,-0.79 2.6,0 5.33,0.2 7.97,0.79l0 0zm1.6 10.76c0.4,-4.54 -4.75,-6.15 -9.57,-6.15 -4.8,0 -9.94,1.62 -9.55,6.15 0.49,5.53 5.66,2.89 9.55,2.92 3.91,-0.02 9.08,2.61 9.57,-2.92l0 0zm13.74 -32.66c-0.95,0.26 -1.46,0.81 -1.57,1.8 -0.56,5.34 -2.72,7.49 -6.18,8.7 -0.05,5.38 -0.79,9.45 -2.25,14.5 4.1,8.58 0.96,14.57 -2.37,15.85 -3.17,1.23 -7.26,-0.42 -10.89,-0.42 -3.63,0 -7.78,1.65 -10.95,0.42 -3.34,-1.28 -6.47,-7.27 -2.39,-15.85 -1.45,-5.05 -2.2,-9.12 -2.23,-14.5 -3.46,-1.21 -5.64,-3.36 -6.2,-8.7 -0.11,-0.99 -0.62,-1.54 -1.56,-1.8 -13.64,-3.74 -14.93,-20.68 -8.02,-25.48 -0.62,7.59 -1.27,18.29 14.24,19.72 -0.25,8.9 3.59,11.28 7.56,11.28 3.25,0 5.1,-1.04 5.91,-1.47 2.88,-1.53 0.9,-3.87 0.15,-4.56 -1.98,-1.85 -2.99,-4.49 -2.51,-7.11 0.09,-0.48 0.27,-0.71 0.7,-0.71l5.25 0 5.26 0c0.44,0 0.63,0.24 0.7,0.71 0.48,2.62 -0.53,5.26 -2.5,7.11 -0.74,0.7 -2.72,3.03 0.16,4.56 0.8,0.43 2.67,1.47 5.91,1.47 3.96,0 7.81,-2.38 7.56,-11.28 15.5,-1.42 14.85,-12.13 14.24,-19.72 6.9,4.8 5.6,21.74 -8.02,25.48l0 0zm4.2 -29.56c0,3.9 -2.85,8.23 -6.09,8.23l-2.98 0c0.76,0.9 1.21,2.05 1.21,3.31 0,2.87 -2.33,5.2 -5.2,5.2 -2.88,0 -5.22,-2.33 -5.22,-5.2 0,-1.27 0.45,-2.42 1.2,-3.31l-3.11 0c-1.06,0 -1.89,0.43 -2.55,1.68 -0.22,-1.68 -0.43,-3.4 -0.05,-4.56 0.53,-1.57 1.75,-2.51 2.97,-2.51l13.66 0c2.53,0 4.4,-0.85 6.16,-2.83l0 0zm-1.81 -6.46l-4.77 0c-2.37,0 -4.01,-0.97 -5.4,-2.57l-5.44 -7.1c-0.9,-1.13 -1.62,-1.91 -2.77,-2.44l5.38 0c1.61,0 3.05,0.7 4.17,2.14l5.67 7.21c1.27,1.53 1.67,2.55 3.16,2.76l0 0zm-24.89 -11.73l6.96 9.79c1.1,1.6 2.14,2.5 3.63,3.11l-6.38 0c-2.45,0 -3.92,-1.13 -5,-2.9l-5.48 -8.4c-2.09,-3.15 -2.92,-3.94 -5.32,-4.79l5.92 0c2.33,0 4.51,1.52 5.66,3.19l0 0zm-15.78 1.76l5.67 7.21c1.27,1.53 1.67,2.55 3.16,2.76l-4.76 0c-2.38,0 -4.02,-0.97 -5.41,-2.57l-5.44 -7.1c-0.9,-1.13 -1.61,-1.91 -2.78,-2.44l5.38 0c1.62,0 3.05,0.7 4.17,2.14l0 0zm-3.43 24.67l-2.98 0c-3.23,0 -6.09,-4.33 -6.09,-8.23 1.77,1.99 3.64,2.83 6.18,2.83l13.66 0c1.22,0 2.44,0.95 2.97,2.51 0.38,1.16 0.16,2.88 -0.05,4.56 -0.65,-1.25 -1.48,-1.68 -2.55,-1.68l-3.11 0c0.74,0.9 1.19,2.05 1.19,3.31 0,2.87 -2.33,5.2 -5.2,5.2 -2.87,0 -5.2,-2.33 -5.2,-5.2 0,-1.27 0.44,-2.42 1.19,-3.31l0 0zm-16.84 65.11l1.65 -3.25c0.33,-0.62 0.45,-1.29 0.44,-1.95 -0.01,-0.65 -0.18,-1.31 -0.51,-1.92l4.53 8.16c0.33,0.62 0.5,1.28 0.52,1.94 0.02,0.65 -0.12,1.33 -0.44,1.96l-0.41 0.8c-2.79,5.41 -5.38,15.54 -2.5,21.41 -6.72,-2.5 -8.94,-8.39 -8.22,-13.28 -12.66,-12 -15.84,-24.15 -6.81,-34.35l4.63 -5.42c0.48,-0.53 0.78,-1.15 0.91,-1.79 0.16,-0.63 0.16,-1.31 -0.02,-1.98l2.42 9.01c0.16,0.68 0.18,1.36 0.03,2 -0.14,0.65 -0.44,1.27 -0.9,1.79l-1.41 1.65c-4.72,5.5 -3.46,12.96 3.94,19.64 0.78,-1.88 1.28,-2.85 2.16,-4.44l0 0zm310.3 33.82c0.49,-1.21 0.76,-2.54 0.76,-3.92 0,-5.66 -4.58,-10.26 -10.24,-10.26l-10.36 0c-0.71,0 -1.37,-0.17 -1.95,-0.48 -0.57,-0.3 -1.1,-0.76 -1.49,-1.33l-5.2 -7.67c0.4,0.58 0.91,1.03 1.5,1.33 0.58,0.32 1.25,0.49 1.95,0.48l13.65 0.01c0.7,0 1.38,0.16 1.95,0.48 0.58,0.3 1.1,0.75 1.5,1.33l-6.27 -9.19c-0.4,-0.57 -0.92,-1.02 -1.51,-1.33 -0.57,-0.3 -1.25,-0.48 -1.94,-0.48l-13.55 0.01c-0.69,0 -1.36,-0.18 -1.94,-0.48 -0.59,-0.31 -1.11,-0.76 -1.51,-1.34l-5.89 -8.66c0.39,0.59 0.92,1.03 1.5,1.33 0.59,0.31 1.25,0.49 1.95,0.48l13.59 -0c0.7,-0.01 1.38,0.17 1.95,0.48 0.59,0.3 1.1,0.74 1.5,1.33l-6.27 -9.19c-0.4,-0.57 -0.92,-1.03 -1.51,-1.33 -0.57,-0.31 -1.25,-0.48 -1.94,-0.48l-10.8 0c-0.7,0 -1.36,-0.18 -1.95,-0.49 -0.57,-0.3 -1.1,-0.74 -1.5,-1.33l-7.26 -10.66c14.68,-1.75 26.52,-9.7 28.88,-20.66 3.05,-14.23 -11.08,-28.01 -31.54,-31.01 -3.45,-0.5 -6.08,-3.46 -6.08,-7.04 0,-3.05 1.91,-5.65 4.61,-6.67 -2.17,-0.93 -4.62,-1.46 -7.2,-1.46 -9.06,0 -16.39,6.49 -16.39,14.49 0,1.44 0.25,2.84 0.7,4.15 -10.14,4.38 -19.38,12.14 -26.45,20.53 7.56,-2.01 15.5,-3.09 23.7,-3.09 -0.04,-0.38 -0.06,-0.77 -0.06,-1.16 0,-6.14 4.95,-11.1 11.1,-11.1l0.16 0c-4.19,1.84 -6.22,5.86 -6.22,8.52 0,3.17 2.57,5.73 5.73,5.73 1.23,0 2.38,-0.38 3.31,-1.04 -0.22,-0.73 -0.33,-1.48 -0.33,-2.28 0,-4.39 3.55,-7.94 7.96,-7.94 0.38,0 0.78,0.02 1.15,0.08 -3.03,1.41 -5.14,4.5 -5.14,8.06 0,4.92 3.99,8.9 8.9,8.9 0.53,0 1.03,-0.04 1.53,-0.13 -0.14,-0.51 -0.22,-1.05 -0.22,-1.62 0,-3.53 2.86,-6.39 6.38,-6.39 3.53,0 6.39,2.86 6.39,6.39 0,7.67 -8.52,8.38 -14.73,6.59 -17.68,-5.1 -34.24,-7.38 -50.26,-5.15 -20.55,2.88 -54.22,16.79 -89.96,15.62 -7.99,-0.25 -16.71,-1.58 -25.49,-3.98 1.08,1.17 1.77,2 2.22,2.69 3.48,5.42 4.67,11.1 1.6,18.21 0.08,-7.97 -6.5,-14.53 -12.01,-18.54 -2.22,-1.62 -3.12,-3.16 -2.75,-5.23l1.63 -9.19c-0.12,0.68 -0.06,1.36 0.15,1.97 0.2,0.63 0.55,1.22 1.05,1.71l3.43 3.36c1.3,-9.31 -0.8,-17.97 -6.34,-26 2.45,-6.41 2.79,-13.49 1.15,-20.12 -0.65,5.02 -3.11,7.18 -5.46,8.64 -4.34,2.71 -5.06,7.31 -2.81,10.38 -3.67,-1.88 -8.73,-8.68 -5.8,-12.66 3.16,-4.29 11.81,-2.27 12.88,-9.65 -5.61,-1.78 -11.39,-0.53 -13.15,-0.05 -3.32,-3.82 -7.74,-5.71 -13.23,-5.67 -4.34,-3.95 -9.92,-5.58 -16.75,-4.89 -6.8,-0.68 -12.37,0.95 -16.71,4.89 -5.49,-0.04 -9.91,1.85 -13.23,5.67 -1.77,-0.48 -7.53,-1.73 -13.16,0.05 1.07,7.37 9.7,5.35 12.87,9.65 2.93,3.97 -2.13,10.78 -5.8,12.66 2.26,-3.07 1.53,-7.67 -2.82,-10.38 -2.32,-1.46 -4.8,-3.62 -5.44,-8.64 -1.64,6.64 -1.29,13.71 1.15,20.12 -5.54,8.02 -7.64,16.69 -6.34,26l3.44 -3.36c0.5,-0.49 0.85,-1.08 1.05,-1.71 0.21,-0.61 0.25,-1.29 0.12,-1.97l1.64 9.19c0.36,2.07 -0.51,3.61 -2.74,5.23 -5.53,4.02 -12.11,10.57 -12.03,18.54 -3.06,-7.11 -1.83,-13.03 1.62,-18.21 -10.48,-5.66 -18.46,-14.96 -19.93,-16.65 -3.17,-3.69 -2.75,-8.39 0.12,-12.5 5.54,-7.93 6.86,-16.37 -0.1,-22.15 0.05,-0.42 0.07,-0.85 0.07,-1.28 0,-5.26 -3.74,-9.63 -8.7,-10.62 0.92,1.43 1.46,3.14 1.46,4.98 0,2.09 -0.69,4.02 -1.88,5.56 0.98,1.29 1.57,2.91 1.57,4.66 0,2.34 -1.05,4.44 -2.71,5.84 0.16,-0.8 0.24,-1.65 0.24,-2.5 0,-5.41 -3.34,-9.93 -7.87,-11.17 -0.73,-3.92 -4.17,-6.9 -8.31,-6.9 -2.4,0 -4.56,0.99 -6.1,2.6 3.2,0.24 5.79,2.76 6.14,5.95 -1.53,1.15 -2.76,2.73 -3.57,4.59l0.21 0c5.54,0 10.03,4.49 10.03,10.03 0,0.62 -0.06,1.25 -0.16,1.84 -0.42,-2.28 -1.45,-4.38 -3.11,-6.01 -3.11,-3.03 -7.63,-3.66 -11.77,-2.08 -1.56,-1.95 -3.95,-3.2 -6.63,-3.2 -3.04,0 -5.69,1.59 -7.19,3.98 3.06,0.13 5.75,1.68 7.43,4.01 -4.34,5.58 -4.39,13.28 0.06,17.62 3.02,2.94 7.33,3.63 11.37,2.24 0.26,-0.1 0.54,-0.15 0.85,-0.15 1.49,0 2.68,1.2 2.68,2.68 0,1.47 -1.19,2.67 -2.68,2.67 -0.65,0 -1.24,-0.23 -1.7,-0.61 -1.02,-0.85 -2.33,-1.35 -3.75,-1.35 -3.23,0 -5.86,2.62 -5.86,5.86 0,0.24 0.01,0.49 0.05,0.72 -0.55,0.18 -1.14,0.27 -1.75,0.27 -1.58,0 -3.02,-0.65 -4.07,-1.68 -0.16,0.64 -0.25,1.3 -0.25,2 0,4.13 3.19,7.51 7.24,7.82 1.82,4.52 6.26,7.7 11.43,7.7 2.66,0 5.11,-0.83 7.12,-2.25 0.88,-0.62 1.94,-0.98 3.09,-0.98 2.98,0 5.4,2.42 5.4,5.39 0,2.57 -1.79,4.72 -4.2,5.26l-4.2 0.93c-0.68,0.16 -1.38,0.12 -2.01,-0.06 -0.64,-0.16 -1.23,-0.49 -1.73,-0.98l9.61 9.13c0.51,0.48 1.11,0.81 1.74,0.98 0.64,0.18 1.32,0.22 2,0.06l7.87 -1.75c0.68,-0.16 1.37,-0.12 2,0.06 0.62,0.17 1.25,0.49 1.75,0.98l6.59 6.27c-0.52,-0.49 -1.11,-0.81 -1.76,-0.98 -0.62,-0.18 -1.3,-0.22 -2,-0.06l-7.85 1.73c-0.68,0.16 -1.37,0.12 -2,-0.06 -0.63,-0.16 -1.25,-0.49 -1.74,-0.97l8.8 8.34c0.5,0.49 1.12,0.81 1.73,0.98 0.64,0.18 1.33,0.22 2.01,0.06l7.87 -1.72c0.7,-0.16 1.37,-0.12 2.01,0.06 0.63,0.16 1.23,0.5 1.75,0.98l6.59 6.27c-0.52,-0.48 -1.11,-0.81 -1.75,-0.98 -0.64,-0.18 -1.32,-0.22 -2.01,-0.06l-7.85 1.73c-0.7,0.16 -1.38,0.12 -2.01,-0.06 -0.64,-0.17 -1.23,-0.49 -1.75,-0.98l8.81 8.35c0.51,0.49 1.11,0.81 1.74,0.98 0.64,0.18 1.32,0.22 2.01,0.06l9.51 -2.08c-9.24,5.22 -19.07,11.13 -29.49,17.72 -6.16,3.89 -12.9,4.62 -20.64,1.65 -4.17,-1.59 -8.67,-1.85 -11.52,-1.36 -3.71,0.63 -6.86,2.88 -8.69,6.01 1.44,-0.59 3,-0.9 4.66,-0.9 3.46,0 6.58,1.4 8.85,3.65 -3.6,-1.51 -8.08,-1.67 -12.43,-0.08 -7.76,2.83 -12.3,10.17 -10.53,16.72 -2.91,1.13 -4.94,3.92 -4.94,7.21 0,2.17 0.88,4.12 2.32,5.53 0.77,-3.44 3.79,-6.04 7.43,-6.17 1.52,1 3.29,1.71 5.2,2.09 0.57,-0.99 1.3,-1.89 2.14,-2.65 -0.1,-0.62 -0.13,-1.25 -0.13,-1.9 0,-7.1 5.74,-12.85 12.84,-12.85 0.59,0 1.16,0.04 1.73,0.12 -5.64,1.35 -9.84,6.43 -9.84,12.49 0,0.76 0.07,1.52 0.21,2.25 -3.04,1.16 -5.18,4.11 -5.18,7.55 0,1.97 0.7,3.78 1.89,5.19 2.18,-4.26 6.43,-7.27 11.41,-7.75 1.88,0.55 3.87,0.85 5.91,0.85 1.3,0 2.55,-0.12 3.77,-0.33 -1.1,-1.62 -1.75,-3.55 -1.75,-5.64 0,-5.52 4.46,-9.99 9.99,-9.99 0.48,0 0.93,0.04 1.41,0.11 -5.27,2.23 -8.51,6.82 -7.39,10.98 0.79,2.97 3.58,5.01 7.18,5.68 -0.05,2.22 -0.66,4.31 -1.7,6.12 4.63,-0.33 8.59,-3.14 10.56,-7.08 5.46,-2.19 8.82,-6.87 7.7,-11.11 -0.41,-1.52 -1.35,-2.8 -2.63,-3.78 -0.01,-0.15 -0.02,-0.29 -0.02,-0.43 0,-2.92 2.38,-5.3 5.29,-5.3 2.94,0 5.31,2.38 5.31,5.3 0,1.39 -0.53,2.64 -1.4,3.59l11.09 0c0.7,0 1.36,-0.18 1.94,-0.49 0.59,-0.3 1.1,-0.76 1.49,-1.34l7.12 -10.55c0.26,-0.39 0.62,-0.7 1.02,-0.91 0.39,-0.22 0.84,-0.34 1.33,-0.34l8.71 0c-0.48,0 -0.93,0.12 -1.33,0.33 -0.39,0.22 -0.76,0.51 -1.02,0.91l-7.14 10.55c-0.4,0.59 -0.91,1.04 -1.5,1.34 -0.57,0.31 -1.23,0.49 -1.94,0.49l13.26 0c0.71,0 1.36,-0.18 1.93,-0.49 0.6,-0.3 1.13,-0.76 1.5,-1.34l7.99 -11.78c-5.51,-3.02 -7.76,-8.29 -7.76,-15.54 0,-4.51 2.54,-9.65 2.92,-12.97l0.16 -1.32c0.09,-0.7 -0.01,-1.39 -0.25,-2 -0.19,-0.49 -0.57,-1.21 -0.99,-1.7l6.82 6.99c0.54,0.45 0.92,1.03 1.15,1.64 0.25,0.61 0.35,1.29 0.27,1.99l-0.21 1.6c-0.32,2.77 -3.82,8.76 2.67,14.24 0.33,0.27 1.13,0.84 1.89,1.33l4.61 2.9 0 -17 6.45 -0 0 18.92c0.01,0.7 0.22,1.36 0.54,1.92 0.33,0.58 0.78,1.09 1.38,1.46l6.29 4.01c0.61,0.37 1.27,0.59 1.92,0.64 0.65,0.05 1.34,-0.05 1.97,-0.33l11.61 -5.04c-0.65,0.27 -1.33,0.38 -1.97,0.33 -0.65,-0.05 -1.31,-0.25 -1.9,-0.64l-13.34 -8.48c6.48,-5.48 2.98,-11.46 2.66,-14.24l-0.19 -1.6c-0.08,-0.69 0.01,-1.37 0.24,-1.99 0.25,-0.61 0.64,-1.18 1.16,-1.64l6.82 -6.99c-0.42,0.49 -0.79,1.21 -0.99,1.7 -0.23,0.61 -0.33,1.29 -0.24,2l0.14 1.31c0.55,4.73 5.34,13.29 1.35,18.07l12.2 7.74c0.6,0.37 1.25,0.57 1.9,0.62 0.66,0.06 1.34,-0.04 1.99,-0.33l12.14 -5.27c-0.65,0.27 -1.32,0.37 -1.96,0.32 -0.65,-0.05 -1.31,-0.26 -1.91,-0.63l-13.18 -8.39c2.87,-5.88 0.45,-15.23 -2.33,-20.64l-0.42 -0.8c-0.31,-0.64 -0.46,-1.3 -0.43,-1.96 0,-0.65 0.16,-1.31 0.51,-1.94l4.52 -8.16c-0.33,0.61 -0.5,1.28 -0.5,1.93 -0.02,0.66 0.12,1.33 0.43,1.95l1.67 3.24c0.87,1.59 1.36,2.56 2.13,4.44 7.42,-6.69 9.07,-13.14 4.34,-18.64l-1.41 -1.65c-0.45,-0.53 -0.76,-1.15 -0.9,-1.79 -0.16,-0.63 -0.16,-1.31 0.04,-2l2.42 -9.01c-0.18,0.67 -0.18,1.35 -0.05,1.99 0.16,0.63 0.45,1.25 0.92,1.78l4.64 5.42c9.02,10.19 3.57,23.33 -7.2,33.34 0.6,1.92 1.11,5.53 0.68,7.48l14.3 9.07c0.6,0.38 1.25,0.59 1.91,0.64 0.65,0.06 1.33,-0.05 1.98,-0.33l10.33 -4.5c-0.59,0.25 -1.24,0.4 -1.91,0.4 -2.67,0 -4.82,-2.16 -4.82,-4.81 0,-2.15 1.4,-4.01 3.36,-4.59 39.47,-12.01 75.8,-43 99.66,-42.93 11.59,0.04 20.99,7.06 20.99,15.76 0,1.4 -0.25,2.76 -0.7,4.07 -5.08,14.28 2.32,27.92 21.87,33.18 3.12,0.85 5.42,3.7 5.42,7.07 0,0.65 -0.1,1.3 -0.25,1.9 0.44,0.05 0.9,0.06 1.36,0.06 5.38,0 10.14,-2.68 13.03,-6.77 3.35,-0.02 7.02,-0.23 10.78,-0.62 0.45,0.91 0.81,1.95 1.03,3.08 0.8,4.1 -0.62,7.82 -3.15,8.64 -4.49,1.46 -9.99,-0.29 -14.24,-0.25 -8.04,0.08 -14.53,6.61 -14.53,14.67 0,0.64 0.04,1.25 0.12,1.87 -2.52,1.58 -4.2,4.38 -4.2,7.56 0,1.59 0.42,3.09 1.14,4.38 2.48,-2.9 5.71,-5.12 9.38,-6.41 0.31,-7.06 6.13,-12.68 13.25,-12.68 1.09,0 2.17,0.13 3.17,0.38 -7.22,0.91 -12.83,7.08 -12.83,14.56 0,0.54 0.04,1.08 0.1,1.62 -0.9,1.08 -1.43,2.48 -1.43,3.99 0,1.92 0.86,3.65 2.21,4.8 1.36,-2.98 4.66,-5.79 8.91,-7.23 2.86,-0.96 5.67,-1.15 8.02,-0.67 -0.38,-1.13 -0.56,-2.32 -0.56,-3.57 0,-6.38 5.16,-11.55 11.55,-11.55 0.59,0 1.17,0.05 1.73,0.13 -4.45,0.6 -7.87,4.41 -7.87,9.02 0,3.06 1.51,5.76 3.81,7.42 0,0.17 -0.01,0.33 -0.01,0.5 0,2.5 1.15,4.74 2.94,6.21 0.81,-4.19 4.48,-7.34 8.91,-7.34 3.78,0 6.91,-0.48 9.24,-1.25 3.95,-1.3 6.83,-4.94 6.83,-9.31 0,-3.03 -1.37,-5.73 -3.55,-7.51 1.08,-4.91 0.89,-12.96 -0.78,-19.66 0.33,-0.05 0.68,-0.07 1.04,-0.07 2.76,0 5.19,1.41 6.6,3.57l0 0zm143.2 -636.7l-13.57 0 0 813.93 13.57 0 0 -813.93z"></path>
     </g>
    </g>
   </g>
  </g>
 </g>
</svg>
